<svg xmlns="http://www.w3.org/2000/svg" width="1200" height="630" viewBox="0 0 1200 630">
<rect width="1200" height="630" fill="#dcecf6"/>
<rect x="60" y="50" width="1080" height="220" rx="14" fill="#fff3ee"/><rect x="90" y="80" width="300" height="160" rx="8" fill="#9fc3e8"/><rect x="420" y="80" width="300" height="160" rx="8" fill="#ffe7a3"/>
<rect y="400" width="1200" height="230" fill="#2a2f66"/><rect y="380" width="1200" height="36" fill="#f4e3cc"/>
<!-- bowl blueberries -->
<ellipse cx="220" cy="372" rx="110" ry="14" fill="#161a38" opacity=".2"/>
<path d="M110 300c0 70 50 80 110 80s110-10 110-80z" fill="#e85d4a"/><ellipse cx="220" cy="300" rx="110" ry="18" fill="#c7402a"/>
<g fill="#3a417f"><circle cx="170" cy="290" r="22"/><circle cx="222" cy="280" r="24"/><circle cx="272" cy="292" r="21"/><circle cx="196" cy="268" r="20"/><circle cx="248" cy="266" r="20"/></g>
<g fill="#9fc3e8"><circle cx="222" cy="272" r="4"/><circle cx="170" cy="283" r="4"/><circle cx="272" cy="285" r="4"/></g>
<!-- carrots -->
<g fill="#f08a3c"><rect x="400" y="320" width="150" height="26" rx="13" transform="rotate(-8 475 333)"/><rect x="410" y="350" width="150" height="26" rx="13" transform="rotate(6 485 363)"/><rect x="420" y="290" width="140" height="26" rx="13" transform="rotate(-20 490 303)"/></g>
<!-- apple slices -->
<g><path d="M620 376a60 60 0 0 1 120-10z" fill="#fff3ee" stroke="#e85d4a" stroke-width="10" stroke-linejoin="round"/><path d="M700 376a60 60 0 0 1 110-20z" fill="#fff3ee" stroke="#e85d4a" stroke-width="10" stroke-linejoin="round"/></g>
<!-- chicken -->
<ellipse cx="930" cy="372" rx="130" ry="14" fill="#161a38" opacity=".2"/><ellipse cx="930" cy="340" rx="130" ry="32" fill="#fff"/>
<g fill="#f3d9b0"><rect x="850" y="296" width="70" height="46" rx="18"/><rect x="930" y="290" width="80" height="50" rx="20"/><rect x="900" y="318" width="60" height="34" rx="16"/></g>
<!-- badge -->
<circle cx="1050" cy="130" r="64" fill="#3fa66b"/><circle cx="1050" cy="130" r="64" fill="none" stroke="#fff" stroke-width="8"/><path d="M1020 132l22 22 40-46" stroke="#fff" stroke-width="14" fill="none" stroke-linecap="round" stroke-linejoin="round"/>
<!-- nose -->
<ellipse cx="600" cy="640" rx="130" ry="100" fill="#f0b27a"/><ellipse cx="470" cy="610" rx="40" ry="70" transform="rotate(20 470 610)" fill="#b8693a"/><ellipse cx="730" cy="610" rx="40" ry="70" transform="rotate(-20 730 610)" fill="#b8693a"/>
<ellipse cx="600" cy="590" rx="48" ry="34" fill="#ffe9cf"/><ellipse cx="600" cy="570" rx="28" ry="19" fill="#161a38"/><ellipse cx="592" cy="564" rx="8" ry="4" fill="#fff" opacity=".5"/>
<circle cx="545" cy="535" r="12" fill="#161a38"/><circle cx="655" cy="535" r="12" fill="#161a38"/><circle cx="549" cy="531" r="4" fill="#fff"/><circle cx="659" cy="531" r="4" fill="#fff"/>
</svg>
